<svg xmlns="http://www.w3.org/2000/svg" xmlns:xlink="http://www.w3.org/1999/xlink" width="55px" height="89px" viewBox="0 0 55 89"><title>ab-seal-vertical</title><g id="Pages" stroke="none" stroke-width="1" fill="none" fill-rule="evenodd"><g id="Home-2" transform="translate(-1239.000000, -7807.000000)"><g id="Group-28-Copy-2" transform="translate(0.000000, 6906.000000)"><g id="Group-78" transform="translate(81.000000, 804.000000)"><g id="ab-seal-vertical" transform="translate(1159.000000, 98.000000)"><path d="M47.5302694,86.673 L5.34026941,86.673 C2.56474417,86.6460628 0.335853773,84.3755486 0.360070717,81.6 L0.360070717,5.436 C0.336959718,2.66200258 2.56431571,0.393034671 5.33826941,0.365 L47.5302694,0.365 C50.3039898,0.393582812 52.5310267,2.66222571 52.5084774,5.436 L52.5084774,81.601 C52.5332444,84.3761643 50.3054046,86.6469678 47.5302694,86.675" id="Path" fill="#FFFFFF" fill-rule="nonzero"></path><path d="M47.3972694,86.718 L5.25426941,86.718 C2.48526941,86.693 0.260269405,84.42 0.282107656,81.639 L0.282107656,5.361 C0.260269405,2.58 2.48526941,0.307 5.25426941,0.28 L47.3972694,0.28 C50.1652694,0.306 52.3902694,2.579 52.3694168,5.36 L52.3694168,81.638 C52.3902694,84.419 50.1652694,86.692 47.3972694,86.718 Z" id="Path" stroke="#000000"></path><path d="M47.4822694,0 C50.3592618,0.0269457196 52.6713522,2.37795869 52.6504124,5.255 L52.6504124,81.464 C52.6707979,84.3406522 50.3588686,86.691054 47.4822694,86.718 L5.16926941,86.718 C2.29227839,86.6916018 -0.0202567526,84.3410389 0.000133813343,81.464 L0.000133813343,5.254 C-0.0202545045,2.37657426 2.29288659,0.025850219 5.17026941,0 L47.4832694,0 M47.4832694,0.358 L5.16926941,0.358 C2.48810814,0.382747138 0.333297986,2.57379891 0.353131694,5.255 L0.353131694,81.464 C0.333852386,84.1448119 2.48850138,86.3352524 5.16926941,86.36 L47.4822694,86.36 C50.1630374,86.3352524 52.3176864,84.1448119 52.2983996,81.464 L52.2983996,5.254 C52.3176864,2.57318807 50.1630374,0.38274756 47.4822694,0.358 L47.4832694,0.358 Z" id="Shape" fill="#000000" fill-rule="nonzero"></path><path d="M47.4822694,0 C50.3592618,0.0269457196 52.6713522,2.37795869 52.6504124,5.255 L52.6504124,81.464 C52.6707979,84.3406522 50.3588686,86.691054 47.4822694,86.718 L5.16926941,86.718 C2.29227839,86.6916018 -0.0202567526,84.3410389 0.000133813343,81.464 L0.000133813343,5.254 C-0.0202545045,2.37657426 2.29288659,0.025850219 5.17026941,0 L47.4832694,0 M47.4832694,0.358 L5.16926941,0.358 C2.48810814,0.382747138 0.333297986,2.57379891 0.353131694,5.255 L0.353131694,81.464 C0.333852386,84.1448119 2.48850138,86.3352524 5.16926941,86.36 L47.4822694,86.36 C50.1630374,86.3352524 52.3176864,84.1448119 52.2983996,81.464 L52.2983996,5.254 C52.3176864,2.57318807 50.1630374,0.38274756 47.4822694,0.358 L47.4832694,0.358 Z" id="Shape" stroke="#000000"></path><g id="Group" transform="translate(0.624269, 7.099000)" fill-rule="nonzero"><path d="M50.553,62.695 L50.553,74.684 C50.5729897,76.7134105 48.945384,78.3754748 46.916,78.398 L4.722,78.398 C3.74717898,78.3886066 2.81624427,77.991331 2.135,77.294 C1.45259896,76.5953139 1.07501603,75.654593 1.08480693,74.678 L1.08480693,62.695 L50.555,62.695" id="Path" fill="#005F84"></path><path d="M52.149,62.014 L52.149,75.366 C52.149,77.648 50.432,79.501 48.314,79.501 L3.836,79.501 C1.71,79.501 1.33226763e-15,77.648 1.33226763e-15,75.366 L1.33226763e-15,62.014 L52.148,62.014" id="Path" fill="#000000"></path><path d="M6.26,65.57 L7.159,65.57 L9.059,70.128 L8.039,70.128 L7.634,69.114 L5.759,69.114 L5.349,70.128 L4.36,70.128 L6.26,65.57 M7.282,68.234 L6.702,66.766 L6.122,68.234 L7.282,68.234 Z M9.263,67.879 L9.263,67.867 C9.24631889,67.2442585 9.48473128,66.6417254 9.923,66.199 C10.3605498,65.7571273 10.9602786,65.5141991 11.582,65.527 C12.235634,65.4971776 12.8701827,65.7517264 13.322,66.225 L12.693,66.96 C12.398025,66.6454653 11.9900068,66.4612454 11.559,66.448 C10.811,66.448 10.272,67.082 10.272,67.858 L10.272,67.871 C10.272,68.647 10.797,69.292 11.559,69.292 C12.065,69.292 12.376,69.085 12.719,68.763 L13.339,69.403 C12.7045353,70.1398936 11.6786357,70.404346 10.767,70.066 C9.8550232,69.7258785 9.24916842,68.8563315 9.246,67.883 M13.81,67.879 L13.81,67.867 C13.8284672,66.9124203 14.4142077,66.0607561 15.299,65.702 C16.1829328,65.3440896 17.1952467,65.5500974 17.869,66.225 L17.249,66.96 C16.954025,66.6454653 16.5460068,66.4612454 16.115,66.448 C15.368,66.448 14.83,67.082 14.83,67.858 L14.83,67.871 C14.83,68.647 15.356,69.292 16.115,69.292 C16.622,69.292 16.933,69.085 17.275,68.763 L17.895,69.403 C17.2606996,70.1394653 16.2353484,70.403879 15.324,70.066 C14.4116295,69.7262066 13.8053246,68.8565854 13.802,67.883 M18.684,65.603 L20.711,65.603 C21.186,65.573 21.653,65.739 22.004,66.063 C22.264,66.341 22.404,66.713 22.39,67.096 L22.39,67.109 C22.4234795,67.7369369 22.0353492,68.3105527 21.44,68.513 L22.521,70.13 L21.381,70.13 L20.423,68.682 L19.65,68.682 L19.65,70.13 L18.684,70.13 L18.684,65.603 M20.646,67.801 C21.121,67.801 21.394,67.544 21.394,67.161 L21.394,67.154 C21.394,66.727 21.102,66.508 20.621,66.508 L19.655,66.508 L19.655,67.808 L20.646,67.801 L20.646,67.801 Z M23.258,65.603 L26.603,65.603 L26.603,66.489 L24.228,66.489 L24.228,67.406 L26.319,67.406 L26.319,68.292 L24.228,68.292 L24.228,69.244 L26.636,69.244 L26.636,70.128 L23.258,70.128 L23.258,65.603 M27.501,65.603 L29.231,65.603 C30.624,65.603 31.586,66.573 31.586,67.853 L31.586,67.867 C31.586,69.141 30.62,70.13 29.231,70.13 L27.501,70.13 L27.501,65.603 M29.231,69.23 C29.594,69.25 29.947,69.112 30.203,68.853 C30.4586478,68.5932009 30.5914132,68.2367351 30.568,67.873 L30.568,67.862 C30.5874188,67.4991088 30.453108,67.1448186 30.198,66.886 C29.9440148,66.6279138 29.592797,66.48917 29.231,66.504 L28.476,66.504 L28.476,69.232 L29.23,69.23 L29.231,69.23 Z M32.499,65.603 L33.499,65.603 L33.499,70.128 L32.499,70.128 L32.499,65.603 Z M35.614,66.522 L34.265,66.522 L34.265,65.603 L37.938,65.603 L37.938,66.522 L36.59,66.522 L36.59,70.128 L35.614,70.128 L35.614,66.522 M38.684,65.603 L42.029,65.603 L42.029,66.489 L39.654,66.489 L39.654,67.406 L41.745,67.406 L41.745,68.292 L39.654,68.292 L39.654,69.244 L42.062,69.244 L42.062,70.128 L38.684,70.128 L38.684,65.603 M42.928,65.603 L44.658,65.603 C46.051,65.603 47.013,66.573 47.013,67.853 L47.013,67.867 C47.013,69.141 46.047,70.13 44.657,70.13 L42.927,70.13 L42.927,65.603 M44.657,69.23 C45.02,69.25 45.374,69.112 45.629,68.853 C45.885013,68.5933733 46.0181502,68.2368856 45.995,67.873 L45.995,67.862 C46.0144188,67.4991088 45.880108,67.1448186 45.625,66.886 C45.3707774,66.6276501 45.0191399,66.4888841 44.657,66.504 L43.904,66.504 L43.904,69.232 L44.657,69.23 L44.657,69.23 Z M9.896,71.708 L11.956,71.708 C12.38,71.68 12.798,71.825 13.116,72.109 C13.319,72.314 13.429,72.595 13.419,72.885 L13.419,72.898 C13.429,73.307 13.203,73.684 12.839,73.868 C13.351,74.061 13.668,74.372 13.668,74.98 L13.668,74.994 C13.668,75.822 13.009,76.234 12.008,76.234 L9.896,76.234 L9.896,71.708 M11.746,73.538 C12.176,73.538 12.449,73.396 12.449,73.059 L12.449,73.046 C12.449,72.749 12.221,72.58 11.809,72.58 L10.843,72.58 L10.843,73.536 L11.745,73.538 L11.746,73.538 Z M12.004,75.36 C12.435,75.36 12.694,75.205 12.694,74.87 L12.694,74.858 C12.694,74.554 12.472,74.368 11.971,74.368 L10.846,74.368 L10.846,75.362 L12.003,75.36 L12.004,75.36 Z M14.398,74.294 L14.398,71.708 L15.365,71.708 L15.365,74.268 C15.365,75.006 15.726,75.388 16.321,75.388 C16.916,75.388 17.278,75.019 17.278,74.302 L17.278,71.708 L18.244,71.708 L18.244,74.261 C18.244,75.631 17.49,76.304 16.3,76.304 C15.11,76.304 14.381,75.626 14.381,74.294 M18.953,75.574 L19.533,74.868 C19.893,75.208 20.363,75.404 20.857,75.418 C21.255,75.418 21.497,75.256 21.497,74.992 L21.497,74.978 C21.497,74.726 21.344,74.591 20.604,74.397 C19.711,74.164 19.134,73.912 19.134,73.015 L19.134,73.001 C19.134,72.179 19.78,71.644 20.681,71.644 C21.281,71.636 21.864,71.843 22.327,72.225 L21.823,72.97 C21.4915992,72.705231 21.0864166,72.5494453 20.663,72.524 C20.29,72.524 20.093,72.699 20.093,72.912 L20.093,72.925 C20.093,73.222 20.287,73.313 21.05,73.521 C21.948,73.759 22.457,74.089 22.457,74.878 L22.457,74.891 C22.457,75.791 21.784,76.2950116 20.827,76.2950116 C20.1314775,76.2970088 19.4602842,76.0391593 18.945,75.572 M23.352,71.708 L24.352,71.708 L24.352,76.233 L23.352,76.233 L23.352,71.708 Z M25.436,71.708 L26.336,71.708 L28.413,74.494 L28.413,71.708 L29.376,71.708 L29.376,76.233 L28.547,76.233 L26.4,73.356 L26.4,76.233 L25.436,76.233 L25.436,71.708 M30.439,71.708 L33.784,71.708 L33.784,72.594 L31.409,72.594 L31.409,73.511 L33.498,73.511 L33.498,74.397 L31.409,74.397 L31.409,75.347 L33.815,75.347 L33.815,76.233 L30.439,76.233 L30.439,71.708 M34.379,75.574 L34.959,74.868 C35.318,75.208 35.789,75.404 36.282,75.418 C36.68,75.418 36.922,75.256 36.922,74.992 L36.922,74.978 C36.922,74.726 36.769,74.591 36.029,74.397 C35.136,74.164 34.56,73.912 34.56,73.015 L34.56,73.001 C34.56,72.179 35.206,71.644 36.106,71.644 C36.706,71.636 37.29,71.843 37.753,72.225 L37.247,72.97 C36.9156651,72.7051161 36.5104447,72.5493158 36.087,72.524 C35.712,72.524 35.507,72.699 35.507,72.912 L35.507,72.925 C35.507,73.222 35.701,73.313 36.464,73.521 C37.362,73.759 37.871,74.089 37.871,74.878 L37.871,74.891 C37.871,75.791 37.201,76.2950147 36.244,76.2950147 C35.5481329,76.2972583 34.8765393,76.0393921 34.361,75.572 M38.367,75.574 L38.947,74.868 C39.307,75.208 39.777,75.404 40.271,75.418 C40.671,75.418 40.911,75.256 40.911,74.992 L40.911,74.978 C40.911,74.726 40.758,74.591 40.018,74.397 C39.125,74.164 38.549,73.912 38.549,73.015 L38.549,73.001 C38.549,72.179 39.194,71.644 40.095,71.644 C40.6952175,71.6362695 41.2786305,71.8422009 41.741,72.225 L41.237,72.97 C40.9055992,72.705231 40.5004166,72.5494453 40.077,72.524 C39.705,72.524 39.497,72.699 39.497,72.912 L39.497,72.925 C39.497,73.222 39.691,73.313 40.464,73.521 C41.363,73.759 41.871,74.089 41.871,74.878 L41.871,74.891 C41.871,75.791 41.201,76.2950116 40.244,76.2950116 C39.5484775,76.2970088 38.8772842,76.0391593 38.362,75.572" id="Shape" fill="#FFFFFF"></path><path d="M36.854,36.312 L14.813,36.312 L14.013,38.966 L19.886,38.966 L21.006,42.628 L30.663,42.628 L31.78,38.966 L37.654,38.966 L36.854,36.312 M18.409,21.401 C16.7198446,23.7489476 17.2373984,27.0193523 19.569,28.731 L24.842,32.591 C25.424,33.019 25.554,33.838 25.132,34.425 L25.928,35.007 L28.715,31.129 C29.5296594,30.0014052 29.8631031,28.5964094 29.642,27.223 C29.4296184,25.849446 28.6785318,24.6171889 27.555,23.799 L22.28,19.939 C21.9380135,19.6911597 21.736868,19.2933385 21.74,18.871 C21.738,18.593 21.825,18.321 21.988,18.096 L21.196,17.514 L18.409,21.401 M21.582,5.891 C20.6437148,7.18862961 20.1396976,8.74968291 20.1419921,10.351 C20.1419921,10.756 20.174,11.161 20.237,11.562 C20.5443699,13.5543836 21.6343608,15.3416375 23.265,16.527 L29.895,21.374 C30.9532447,22.1422208 31.5764331,23.3733342 31.569,24.681 C31.5688755,25.5387925 31.2983957,26.3747255 30.796,27.07 L31.432,27.533 L36.655,20.238 C39.105,16.834 38.354,12.084 34.974,9.608 L26.974,3.748 C25.9259354,2.98284039 25.6934957,1.51444753 26.454,0.463 L25.818,-1.77635684e-15 L21.582,5.892 M8.056,44.841 L14.086,44.841 C15.571,44.841 16.743,45.254 17.486,46.004 C18.078,46.59 18.401,47.397 18.377,48.231 L18.377,48.268 C18.377,49.748 17.604,50.571 16.667,51.095 C18.173,51.676 19.102,52.555 19.102,54.315 L19.102,54.358 C19.102,56.752 17.17,57.952 14.234,57.952 L8.056,57.952 L8.056,44.842 M13.467,50.14 C14.731,50.14 15.529,49.73 15.529,48.754 L15.529,48.717 C15.529,47.857 14.86,47.36 13.653,47.36 L10.833,47.36 L10.833,50.13 L13.467,50.14 Z M14.24,55.417 C15.504,55.417 16.265,54.967 16.265,53.997 L16.265,53.957 C16.265,53.077 15.614,52.534 14.14,52.534 L10.833,52.534 L10.833,55.417 L14.24,55.417 Z M20.346,44.842 L26.386,44.842 C27.873,44.842 29.042,45.255 29.786,46.005 C30.378,46.592 30.701,47.398 30.677,48.232 L30.677,48.269 C30.677,49.749 29.904,50.572 28.969,51.096 C30.474,51.677 31.402,52.556 31.402,54.316 L31.402,54.359 C31.402,56.753 29.47,57.953 26.534,57.953 L20.35,57.953 L20.35,44.842 M25.775,50.14 C27.039,50.14 27.839,49.73 27.839,48.754 L27.839,48.717 C27.839,47.857 27.169,47.36 25.962,47.36 L23.129,47.36 L23.129,50.13 L25.775,50.14 Z M26.536,55.417 C27.8,55.417 28.561,54.967 28.561,53.997 L28.561,53.957 C28.561,53.077 27.91,52.534 26.436,52.534 L23.129,52.534 L23.129,55.417 L26.536,55.417 Z M32.646,44.842 L38.686,44.842 C40.171,44.842 41.342,45.255 42.086,46.005 C42.678,46.591 43.001,47.398 42.977,48.232 L42.977,48.269 C42.977,49.749 42.204,50.572 41.267,51.096 C42.772,51.677 43.702,52.556 43.702,54.316 L43.702,54.359 C43.702,56.753 41.769,57.953 38.832,57.953 L32.648,57.953 L32.648,44.842 M38.073,50.14 C39.335,50.14 40.135,49.73 40.135,48.754 L40.135,48.717 C40.135,47.857 39.466,47.36 38.258,47.36 L35.433,47.36 L35.433,50.13 L38.073,50.14 L38.073,50.14 Z M38.834,55.417 C40.098,55.417 40.859,54.967 40.859,53.997 L40.859,53.957 C40.859,53.077 40.208,52.534 38.734,52.534 L35.433,52.534 L35.433,55.417 L38.834,55.417 Z" id="Shape" fill="#000000"></path></g></g></g></g></g></g></svg>